# xmcd
#
# Track frame offsets:
#	150
#	29497
#	54227
#	83042
#	111750
#	132300
#	153007
#	179900
#	211462
#	231392
#	263570
#
# Disc length: 3766 seconds
#
# Revision: 2
# Processed by: cddbd v1.5PL3 Copyright (c) Steve Scherf et al.
# Submitted via: dBpowerAMP V4.0
#
DISCID=930eb40b
DTITLE=Jim White - Drill A Hole in That Substrate and Tell Me What You See
DYEAR=2004
DGENRE=country
TTITLE0=Static on the Radio
TTITLE1=Bluebird
TTITLE2=Combing My Hair in a Brand New Style
TTITLE3=That Girl From Brownsville Texas
TTITLE4=Borrowed Wings
TTITLE5=If Jesus Drove a Motor Home
TTITLE6=Objects in Motion
TTITLE7=Buzzards of Love
TTITLE8=Alabama Chrome
TTITLE9=Phone Booth in Heaven
TTITLE10=Land called home
EXTD=Jim White - Drill a Hole in the Substrate and Tell Me What You See\n
EXTT0=
EXTT1=
EXTT2=
EXTT3=
EXTT4=
EXTT5=
EXTT6=
EXTT7=
EXTT8=
EXTT9=
EXTT10=
PLAYORDER=
